<svg width="70" height="70" viewBox="0 0 405 453" fill="none" xmlns="http://www.w3.org/2000/svg">
<g clip-path="url(#clip0)">
<path d="M404.857 31.1527C403.71 38.2978 398.405 44.4426 390.807 46.0145C246.154 76.8814 187.519 213.925 176.766 282.089C176.48 283.518 176.193 284.947 175.619 286.233C172.896 292.807 166.301 297.237 159.133 297.237C158.129 297.237 157.269 297.237 156.265 296.951C146.517 295.379 139.779 286.233 141.356 276.516C153.542 200.063 219.632 45.8716 383.352 11.1464C392.957 9.14576 402.563 15.2906 404.57 24.865C405 27.0085 405.143 29.1521 404.857 31.1527Z" fill="#4CAF50"/>
<path opacity="0.1" d="M404.857 31.1526C403.71 38.2978 398.405 44.4426 390.807 46.0145C246.154 76.8814 187.519 213.925 176.766 282.089C176.48 283.518 176.193 284.947 175.619 286.233C174.042 286.662 172.322 286.948 170.602 286.948C169.025 286.948 167.304 286.662 165.727 286.233C156.265 283.518 150.674 273.658 153.255 264.226C173.469 192.632 251.315 55.8747 404.857 31.1526Z" fill="black"/>
<path d="M332.745 286.767C332.745 378.367 258.196 452.533 166.444 452.533C144.51 452.533 123.435 448.246 104.225 440.529C43.1522 416.093 0 356.503 0 286.767C0 195.309 74.5487 121 166.301 121C186.945 121 206.586 124.715 224.793 131.575C231.244 134.004 237.552 136.862 243.573 140.006C292.604 165.728 327.154 215.03 332.028 272.762C332.458 277.335 332.745 282.051 332.745 286.767Z" fill="#F44336"/>
<path d="M332.582 287.035C332.582 378.635 258.034 452.801 166.281 452.801C144.347 452.801 123.273 448.514 104.062 440.797C68.7947 413.932 46 371.49 46 323.903C46 242.735 112.09 177 193.52 177C194.094 177 194.667 177 195.384 177C201.692 177.143 207.857 177.572 213.878 178.429C268.356 185.86 313.372 223.157 332.009 273.173C332.296 277.603 332.582 282.319 332.582 287.035Z" fill="black" fill-opacity="0.1"/>
<path d="M42.0053 231.787C57.4885 204.922 75.9823 184.773 111.25 169.768" stroke="black" stroke-opacity="0.1" stroke-width="15" stroke-linecap="round"/>
<path d="M157.269 162.623C162.336 162.623 166.444 158.528 166.444 153.477C166.444 148.426 162.336 144.331 157.269 144.331C152.202 144.331 148.094 148.426 148.094 153.477C148.094 158.528 152.202 162.623 157.269 162.623Z" fill="black" fill-opacity="0.1"/>
</g>
<defs>
<clipPath id="clip0">
<rect width="405" height="453" fill="white"/>
</clipPath>
</defs>
</svg>
